<?xml version="1.0" encoding="utf-8"?>
<!-- Generator: Adobe Illustrator 23.0.3, SVG Export Plug-In . SVG Version: 6.00 Build 0)  -->
<svg version="1.1" id="Layer_1" xmlns="http://www.w3.org/2000/svg" xmlns:xlink="http://www.w3.org/1999/xlink" x="0px" y="0px"
	 viewBox="0 0 294 119" style="enable-background:new 0 0 294 119;" xml:space="preserve">
<style type="text/css">
	.st0{fill:url(#SVGID_1_);}
	.st1{fill:url(#SVGID_2_);}
	.st2{fill:url(#SVGID_3_);}
	.st3{fill:url(#SVGID_4_);}
	.st4{fill:url(#SVGID_5_);}
	.st5{fill:url(#SVGID_6_);}
	.st6{fill:url(#SVGID_7_);}
	.st7{fill:url(#SVGID_8_);}
	.st8{fill:url(#SVGID_9_);}
	.st9{opacity:0.29;}
	.st10{fill:none;}
	.st11{fill:#29ABE2;}
	.st12{fill:url(#SVGID_10_);}
	.st13{fill:#00FFFF;}
</style>
<g>
	<g>
		
			<linearGradient id="SVGID_1_" gradientUnits="userSpaceOnUse" x1="130.3793" y1="75.7918" x2="130.3793" y2="63.9918" gradientTransform="matrix(1 0 0 -1 0 119)">
			<stop  offset="1.166729e-07" style="stop-color:#13A5B0"/>
			<stop  offset="0.5044" style="stop-color:#2C86C6"/>
			<stop  offset="1" style="stop-color:#5363AD"/>
		</linearGradient>
		<path class="st0" d="M134.1,44.6l-0.7,1.2c-0.1,0.2-0.3,0.2-0.4,0.1c-0.7-0.4-1.7-0.7-2.5-0.7c-1.1,0-1.7,0.4-1.7,1.2
			c0,1,1.2,1.2,2.9,1.8c1.9,0.7,2.9,1.4,2.9,3.1c0,2.3-1.8,3.6-4.5,3.6c-1.2,0-2.6-0.3-3.8-0.9c-0.1-0.1-0.2-0.2-0.1-0.4l0.5-1.4
			c0.1-0.2,0.3-0.3,0.4-0.2c0.9,0.4,1.9,0.7,2.8,0.7c1.4,0,2-0.5,2-1.3c0-0.9-1-1.1-2.6-1.7c-1.9-0.6-3.1-1.4-3.1-3.3
			c0-2.1,1.7-3.3,4.1-3.3c1.5,0,2.8,0.4,3.6,0.9C134.1,44.2,134.2,44.4,134.1,44.6z"/>
		
			<linearGradient id="SVGID_2_" gradientUnits="userSpaceOnUse" x1="141.05" y1="75.596" x2="141.05" y2="64.1758" gradientTransform="matrix(1 0 0 -1 0 119)">
			<stop  offset="1.166729e-07" style="stop-color:#13A5B0"/>
			<stop  offset="0.5044" style="stop-color:#2C86C6"/>
			<stop  offset="1" style="stop-color:#5363AD"/>
		</linearGradient>
		<path class="st1" d="M142.2,45.8v8.7c0,0.2-0.1,0.3-0.3,0.3h-1.8c-0.2,0-0.3-0.1-0.3-0.3v-8.7c0-0.2-0.1-0.3-0.3-0.3h-2.8
			c-0.2,0-0.3-0.1-0.3-0.3v-1.4c0-0.2,0.1-0.3,0.3-0.3h8.7c0.2,0,0.3,0.1,0.3,0.3v1.4c0,0.2-0.1,0.3-0.3,0.3h-2.8
			C142.3,45.5,142.2,45.6,142.2,45.8z"/>
		<g>
			<g>
				
					<linearGradient id="SVGID_3_" gradientUnits="userSpaceOnUse" x1="152.15" y1="75.6" x2="152.15" y2="64.1798" gradientTransform="matrix(1 0 0 -1 0 119)">
					<stop  offset="1.166729e-07" style="stop-color:#13A5B0"/>
					<stop  offset="0.5044" style="stop-color:#2C86C6"/>
					<stop  offset="1" style="stop-color:#5363AD"/>
				</linearGradient>
				<path class="st2" d="M150.7,45.8v1.9c0,0.2,0.1,0.3,0.3,0.3h3.9c0.2,0,0.3,0.1,0.3,0.3v1.4c0,0.2-0.1,0.3-0.3,0.3H151
					c-0.2,0-0.3,0.1-0.3,0.3v2c0,0.2,0.1,0.3,0.3,0.3h4.7c0.2,0,0.3,0.1,0.3,0.3v1.4c0,0.2-0.1,0.3-0.3,0.3h-7.1
					c-0.2,0-0.3-0.1-0.3-0.3V43.7c0-0.2,0.1-0.3,0.3-0.3h7.1c0.2,0,0.3,0.1,0.3,0.3v1.4c0,0.2-0.1,0.3-0.3,0.3H151
					C150.8,45.4,150.7,45.6,150.7,45.8z"/>
			</g>
		</g>
		
			<linearGradient id="SVGID_4_" gradientUnits="userSpaceOnUse" x1="163.7" y1="75.6" x2="163.7" y2="64.1798" gradientTransform="matrix(1 0 0 -1 0 119)">
			<stop  offset="1.166729e-07" style="stop-color:#13A5B0"/>
			<stop  offset="0.5044" style="stop-color:#2C86C6"/>
			<stop  offset="1" style="stop-color:#5363AD"/>
		</linearGradient>
		<path class="st3" d="M161.3,52.8l-0.6,1.8c0,0.1-0.2,0.2-0.3,0.2h-1.8c-0.2,0-0.4-0.2-0.3-0.4l4-10.8c0-0.1,0.2-0.2,0.3-0.2h2
			c0.1,0,0.3,0.1,0.3,0.2l4.2,10.8c0.1,0.2-0.1,0.4-0.3,0.4h-1.9c-0.1,0-0.3-0.1-0.3-0.2l-0.6-1.8c0-0.1-0.2-0.2-0.3-0.2h-4
			C161.4,52.6,161.3,52.7,161.3,52.8z M163.3,47l-1.1,3.3c-0.1,0.2,0.1,0.4,0.3,0.4h2.3c0.2,0,0.4-0.2,0.3-0.4L164,47
			C163.8,46.7,163.4,46.7,163.3,47z"/>
		
			<linearGradient id="SVGID_5_" gradientUnits="userSpaceOnUse" x1="177.8" y1="75.6" x2="177.8" y2="64.1798" gradientTransform="matrix(1 0 0 -1 0 119)">
			<stop  offset="1.166729e-07" style="stop-color:#13A5B0"/>
			<stop  offset="0.5044" style="stop-color:#2C86C6"/>
			<stop  offset="1" style="stop-color:#5363AD"/>
		</linearGradient>
		<path class="st4" d="M180.8,49.1l-2.4,5.2c-0.1,0.1-0.2,0.2-0.3,0.2h-0.9c-0.1,0-0.2-0.1-0.3-0.2l-2.4-5.1
			c-0.1-0.3-0.6-0.2-0.6,0.1v5.2c0,0.2-0.1,0.3-0.3,0.3H172c-0.2,0-0.3-0.1-0.3-0.3V43.7c0-0.2,0.1-0.3,0.3-0.3h1.8
			c0.1,0,0.2,0.1,0.3,0.2l3.5,7.4c0.1,0.2,0.5,0.2,0.6,0l3.3-7.4c0.1-0.1,0.2-0.2,0.3-0.2h1.8c0.2,0,0.3,0.1,0.3,0.3v10.8
			c0,0.2-0.1,0.3-0.3,0.3H182c-0.2,0-0.3-0.1-0.3-0.3v-5.2C181.5,48.9,181,48.8,180.8,49.1z"/>
	</g>
</g>
<g>
	<g>
		<g>
			
				<linearGradient id="SVGID_6_" gradientUnits="userSpaceOnUse" x1="139.85" y1="57.0815" x2="139.85" y2="9.7079" gradientTransform="matrix(1 0 0 -1 0 119)">
				<stop  offset="1.166729e-07" style="stop-color:#13A5B0"/>
				<stop  offset="1" style="stop-color:#2C86C6"/>
			</linearGradient>
			<path class="st5" d="M151.3,105.2h-19.2c-0.8,0-1.4-0.6-1.4-1.4V64c0-1.1-0.9-2-2-2h-0.4c-1.1,0-2,0.9-2,2v43.3c0,1.1,0.9,2,2,2
				h23.1c1.1,0,2-0.9,2-2C153.3,106.1,152.4,105.2,151.3,105.2z"/>
		</g>
		<g>
			<g>
				
					<linearGradient id="SVGID_7_" gradientUnits="userSpaceOnUse" x1="182.4352" y1="57.0815" x2="182.4352" y2="9.6815" gradientTransform="matrix(1 0 0 -1 0 119)">
					<stop  offset="1.166729e-07" style="stop-color:#13A5B0"/>
					<stop  offset="1" style="stop-color:#2C86C6"/>
				</linearGradient>
				<path class="st6" d="M185.9,63.3c-0.3-0.8-1.1-1.3-1.9-1.3h-2.9c-0.9,0-1.6,0.5-1.9,1.3l-15.8,43.3c-0.2,0.6-0.1,1.3,0.2,1.9
					c0.4,0.6,1,0.9,1.7,0.9h0.4c0.9,0,1.6-0.5,1.9-1.4l3.7-10.2c0.2-0.6,0.7-0.9,1.3-0.9H192c0.6,0,1.1,0.4,1.3,0.9l3.6,10.2
					c0.3,0.8,1.1,1.4,1.9,1.4h0.7c0.7,0,1.3-0.3,1.7-0.9c0.4-0.5,0.5-1.2,0.2-1.9L185.9,63.3z M190.9,92c-0.3,0.4-0.7,0.6-1.2,0.6
					h-14.5c-0.5,0-0.9-0.2-1.2-0.6s-0.3-0.9-0.2-1.3l7.3-20.2c0.3-0.7,0.9-0.9,1.3-0.9l0,0c0.5,0,1.1,0.3,1.3,0.9l7.2,20.2
					C191.2,91.1,191.1,91.6,190.9,92z"/>
			</g>
		</g>
		<g>
			<g>
				
					<linearGradient id="SVGID_8_" gradientUnits="userSpaceOnUse" x1="229.35" y1="57.1" x2="229.35" y2="9.7264" gradientTransform="matrix(1 0 0 -1 0 119)">
					<stop  offset="1.166729e-07" style="stop-color:#13A5B0"/>
					<stop  offset="1" style="stop-color:#2C86C6"/>
				</linearGradient>
				<path class="st7" d="M239.3,86c-0.5-0.3-1-0.6-1.5-0.8c-0.4-0.2-0.7-0.6-0.8-1.1s0.1-0.9,0.4-1.2c0.8-0.7,1.5-1.6,2.2-2.6
					c1.4-2,2.2-4.3,2.2-6.9c0-3.6-1.3-6.4-3.8-8.5c-2.5-2-6.2-3-10.8-3h-11.4c-1.1,0-2,0.9-2,2v43.3c0,1.1,0.9,2,2,2h13.1
					c4.8,0,8.6-1.1,11.6-3.2c2.9-2.1,4.4-5.4,4.4-9.8c0-2.4-0.5-4.5-1.6-6.2C242.2,88.3,240.9,87,239.3,86z M219.6,87.3h9.1
					c7.9,0,11.7,3,11.7,9.2c0,2.7-1,4.8-3,6.4s-5,2.3-9.1,2.3h-8.7c-0.8,0-1.4-0.6-1.4-1.4v-15C218.2,88,218.9,87.3,219.6,87.3z
					 M234.4,80.7c-1.9,1.6-4.6,2.4-8,2.4h-6.8c-0.8,0-1.4-0.6-1.4-1.4V67.4c0-0.8,0.6-1.4,1.4-1.4h6.6c7.5,0,11.1,2.7,11.1,8.1
					C237.3,76.9,236.3,79.1,234.4,80.7z"/>
			</g>
		</g>
		<g>
			
				<linearGradient id="SVGID_9_" gradientUnits="userSpaceOnUse" x1="271.547" y1="57.8825" x2="271.547" y2="8.8825" gradientTransform="matrix(1 0 0 -1 0 119)">
				<stop  offset="1.166729e-07" style="stop-color:#13A5B0"/>
				<stop  offset="1" style="stop-color:#2C86C6"/>
			</linearGradient>
			<path class="st8" d="M285.3,90.8c-1.3-1.6-2.9-2.9-4.6-3.9c-1.8-1-4.3-2.2-7.6-3.7c-2.7-1.2-4.9-2.2-6.3-3s-2.7-1.7-3.7-2.9
				c-1-1.1-1.5-2.5-1.5-4c0-2.6,0.9-4.6,2.9-6c1.9-1.5,4.6-2.2,8-2.2s6.8,1,10.1,2.9c0.5,0.3,1,0.3,1.5,0.2c0.5-0.1,1-0.5,1.3-1
				s0.3-1,0.2-1.6c-0.1-0.5-0.5-1-1-1.2c-1.5-0.9-3.1-1.6-4.6-2.2c-2.1-0.8-4.7-1.2-7.7-1.2c-3.1,0-5.8,0.5-8.1,1.6
				c-2.3,1-4.1,2.5-5.3,4.3c-1.2,1.8-1.9,3.9-1.9,6.2c0,2.6,0.7,4.7,2,6.5c1.3,1.7,2.9,3.1,4.8,4.1c1.8,1,4.3,2.2,7.4,3.5
				c2.7,1.1,4.9,2.1,6.3,2.8c1.4,0.8,2.7,1.7,3.7,2.9c1,1.1,1.5,2.6,1.5,4.2c0,2.6-0.9,4.6-2.8,6.2c-1.9,1.5-4.8,2.3-8.8,2.3
				c-2.2,0-4.5-0.3-7-1c-1.8-0.5-3.6-1.2-5.2-2c-1-0.5-2.2-0.1-2.7,0.9l-0.1,0.2c-0.5,1-0.1,2.2,0.9,2.7c1.8,1,3.8,1.8,6,2.4
				c2.8,0.8,5.6,1.2,8.3,1.2c3.3,0,6.1-0.6,8.5-1.7s4.2-2.7,5.5-4.7s1.9-4.3,1.9-6.9C287.3,94.4,286.6,92.4,285.3,90.8z"/>
		</g>
	</g>
</g>
<g class="st9">
	<path class="st10" d="M111.1,61.4l-14.6-0.2c-2.1,0-3.6-2.1-2.9-4.1c1-2.7,1.3-5.7,0.7-8.8c-1.2-6.8-6.7-12.3-13.5-13.5
		c-10.7-1.9-20,6.3-20,16.6c0,2.2,0.4,4.2,1.2,6.1c0.7,1.8-0.6,3.7-2.5,3.7H17.3c-1.5,0-2.6,1.1-2.6,2.6
		c1.3,26.9,22.8,47.6,50.2,47.6c24.8,0,47.3-20.6,48.8-47.3C113.7,62.7,112.6,61.4,111.1,61.4z"/>
</g>
<path class="st11" d="M57.1,32.6c3,0,5.4-2.4,5.4-5.4c0-3-2.4-5.4-5.4-5.4c-3,0-5.4,2.4-5.4,5.4C51.7,30.2,54.1,32.6,57.1,32.6z"/>
<path class="st11" d="M79,43.4c-5.3-0.7-9.7,3.8-9,9c0.5,3.6,3.4,6.5,6.9,6.9c5.3,0.7,9.7-3.8,9-9C85.5,46.8,82.6,43.9,79,43.4z"/>
<linearGradient id="SVGID_10_" gradientUnits="userSpaceOnUse" x1="64.4305" y1="111.3294" x2="64.4305" y2="34.4957">
	<stop  offset="1.166729e-07" style="stop-color:#13A5B0"/>
	<stop  offset="0.5044" style="stop-color:#2C86C6"/>
	<stop  offset="1" style="stop-color:#5363AD"/>
</linearGradient>
<path class="st12" d="M111.3,61.4l-14.6-0.2c-2.1,0-3.6-2.1-2.9-4.1c1-2.7,1.3-5.7,0.7-8.8c-1.2-6.8-6.7-12.3-13.5-13.5
	c-10.7-1.9-20,6.3-20,16.6c0,2.2,0.4,4.2,1.2,6.1c0.7,1.8-0.6,3.7-2.5,3.7H17.5c-1.5,0-2.6,1.1-2.6,2.6
	c1.3,26.9,22.8,47.6,50.2,47.6c24.8,0,47.3-20.6,48.8-47.3C113.9,62.7,112.9,61.4,111.3,61.4z M44.3,78.1c0-0.4,0-0.7,0.1-1.1
	c0,0,0-0.1,0-0.1c0,0,0-0.1,0-0.1c0.5-2.5,2.5-4.5,5-5c0,0,0.1,0,0.1,0c0,0,0.1,0,0.1,0c0.4-0.1,0.7-0.1,1.1-0.1c0.1,0,0.2,0,0.3,0
	c0.4,0,0.8,0,1.2,0.1c0.1,0,0.2,0,0.2,0.1c0.3,0.1,0.7,0.2,1,0.3c0.1,0,0.1,0,0.2,0.1c0.3,0.2,0.7,0.3,1,0.5c0.1,0,0.1,0.1,0.2,0.1
	c0.3,0.2,0.6,0.5,0.9,0.7c0,0,0,0,0,0c0.3,0.3,0.5,0.6,0.7,0.9c0,0.1,0.1,0.1,0.1,0.2c0.2,0.3,0.4,0.6,0.5,1c0,0.1,0,0.1,0.1,0.2
	c0.1,0.3,0.2,0.7,0.3,1c0,0.1,0,0.2,0.1,0.2c0.1,0.4,0.1,0.8,0.1,1.2c0,0.1,0,0.2,0,0.3c0,0.4,0,0.7-0.1,1.1c0,0,0,0.1,0,0.1
	c0,0,0,0.1,0,0.1c-0.5,2.5-2.5,4.5-5,5c0,0-0.1,0-0.1,0c0,0-0.1,0-0.1,0C51.9,85,51.5,85,51.2,85c-0.1,0-0.2,0-0.3,0
	c-0.4,0-0.8,0-1.2-0.1c-0.1,0-0.2,0-0.2-0.1c-0.3-0.1-0.7-0.2-1-0.3c-0.1,0-0.1,0-0.2-0.1c-0.3-0.2-0.7-0.3-1-0.5
	c-0.1,0-0.1-0.1-0.2-0.1c-0.3-0.2-0.6-0.5-0.9-0.7c-0.3-0.3-0.5-0.6-0.7-0.9c0-0.1-0.1-0.1-0.1-0.2c-0.2-0.3-0.4-0.6-0.5-1
	c0-0.1,0-0.1-0.1-0.2c-0.1-0.3-0.2-0.7-0.3-1c0-0.1,0-0.2-0.1-0.2c-0.1-0.4-0.1-0.8-0.1-1.2C44.3,78.3,44.3,78.2,44.3,78.1z
	 M62.9,78.8c-0.2,6.4-5.5,11.5-11.9,11.5c-5.1,0-9.6-3.2-11.3-8.1c-0.2-0.7,0.1-1.4,0.8-1.6c0.7-0.2,1.4,0.1,1.6,0.8
	c1.3,3.8,4.9,6.3,8.9,6.3c5.1,0,9.2-4,9.4-9l0-0.4c0-0.7,0.6-1.3,1.3-1.3s1.3,0.6,1.3,1.3L62.9,78.8z M84.1,61.2
	c-1.8,1.1-3.9,1.8-6.1,1.8c-2.3,0-4.4-0.7-6.1-1.8c-3.2-2-5.4-5.6-5.4-9.7c0-6.4,5.2-11.5,11.5-11.5c6.4,0,11.5,5.2,11.5,11.5
	C89.5,55.5,87.3,59.1,84.1,61.2z"/>
<circle class="st13" cx="64.4" cy="6.5" r="3.8"/>
</svg>
